<?xml version="1.0" standalone="no"?>
<!DOCTYPE svg PUBLIC "-//W3C//DTD SVG 20010904//EN"
 "http://www.w3.org/TR/2001/REC-SVG-20010904/DTD/svg10.dtd">
<svg version="1.0" xmlns="http://www.w3.org/2000/svg"
 width="512.000000pt" height="512.000000pt" viewBox="0 0 512.000000 512.000000"
 preserveAspectRatio="xMidYMid meet">
<metadata>
Created by potrace 1.11, written by Peter Selinger 2001-2013
</metadata>
<g transform="translate(0.000000,512.000000) scale(0.100000,-0.100000)"
fill="#000000" stroke="none">
<path d="M1389 5107 c-34 -26 -39 -55 -39 -212 0 -157 5 -186 39 -212 11 -9
78 -13 231 -13 l215 0 -51 -28 c-206 -114 -424 -316 -564 -522 -70 -103 -164
-300 -200 -418 l-34 -112 -49 0 c-151 0 -287 -105 -335 -259 -23 -75 -22 -217
2 -291 60 -183 192 -320 399 -414 71 -33 76 -37 100 -89 97 -212 283 -439 482
-590 44 -33 79 -64 77 -70 -5 -16 -83 -129 -130 -187 -61 -76 -195 -213 -267
-273 -63 -53 -95 -88 -95 -106 0 -6 -28 -29 -62 -52 -86 -58 -131 -101 -181
-173 -137 -191 -201 -445 -214 -842 l-6 -200 28 -22 28 -22 1797 0 1797 0 28
22 28 22 -6 200 c-13 397 -77 651 -214 842 -50 72 -95 115 -181 173 -34 23
-62 48 -62 56 0 15 -41 56 -169 166 -46 40 -111 106 -145 147 -67 82 -176 241
-176 257 0 5 22 24 48 42 70 48 203 169 272 248 84 97 149 193 215 317 55 104
57 106 110 128 199 81 351 236 411 420 24 74 25 216 2 291 -48 154 -184 259
-335 259 l-50 0 -11 51 c-19 80 -95 267 -148 362 -145 260 -346 468 -595 618
l-82 49 209 0 c219 1 229 2 252 47 16 30 16 326 0 356 -25 48 2 46 -831 47
l-788 0 -24 -25 c-14 -13 -25 -31 -25 -40 0 -12 -14 -15 -71 -15 -68 0 -70 1
-80 29 -6 15 -21 33 -35 40 -36 16 -493 15 -515 -2z m1549 -462 c172 -48 343
-131 481 -232 79 -59 251 -224 290 -280 l22 -33 -1165 0 c-641 0 -1166 4
-1166 9 0 4 45 56 101 114 191 202 401 334 659 414 l105 32 293 1 c282 0 296
-1 380 -25z m-1604 -1042 c-49 -285 -112 -493 -182 -608 l-25 -39 -10 24 c-6
15 -11 115 -11 240 -1 193 1 225 23 318 l24 102 94 0 94 0 -7 -37z m2300 -10
c4 -27 20 -114 36 -194 56 -281 142 -481 249 -576 l35 -31 -17 -54 c-26 -85
-102 -232 -169 -332 -67 -98 -249 -288 -335 -348 l-52 -37 -83 157 c-121 228
-188 311 -312 386 -198 119 -654 119 -852 0 -124 -75 -191 -158 -312 -386
l-83 -157 -52 37 c-86 60 -268 250 -335 348 -67 99 -143 247 -169 330 l-16 52
52 52 c109 109 209 386 262 723 l12 77 1067 0 1068 0 6 -47z m350 -25 c31
-135 39 -229 33 -393 -3 -88 -10 -173 -15 -190 l-9 -30 -28 45 c-41 64 -63
120 -96 234 -24 83 -89 375 -89 399 0 4 42 7 94 7 l94 0 16 -72z m-3028 -150
c-22 -108 -10 -364 24 -522 11 -49 18 -91 16 -94 -9 -8 -94 59 -147 115 -65
71 -96 131 -111 213 -12 68 -1 144 28 206 28 58 97 101 167 103 23 1 27 -2 23
-21z m3330 -9 c48 -29 72 -68 91 -143 30 -122 -6 -240 -106 -349 -54 -58 -138
-123 -147 -114 -3 3 2 31 10 63 34 137 51 343 38 483 l-8 93 44 -6 c25 -3 60
-15 78 -27z m-1524 -924 c135 -29 212 -77 290 -183 22 -29 90 -151 153 -272
152 -294 235 -415 404 -593 l74 -77 -119 40 c-485 166 -795 435 -904 783 -33
104 -62 147 -100 147 -39 0 -67 -42 -99 -145 -106 -347 -419 -618 -905 -785
l-119 -40 74 77 c169 178 252 299 404 593 63 121 131 243 153 272 76 103 155
154 283 182 89 20 319 20 411 1z m-169 -539 c102 -195 317 -399 562 -533 47
-26 85 -51 85 -55 0 -13 -95 -189 -153 -283 -104 -169 -268 -373 -427 -530
l-101 -100 -123 125 c-202 206 -367 428 -493 663 -34 65 -63 122 -63 125 0 4
26 20 58 37 242 125 486 353 588 550 16 30 31 55 34 55 3 0 18 -24 33 -54z
m-1493 -1017 c97 -192 285 -482 432 -665 39 -49 75 -95 81 -101 7 -10 -69 -13
-373 -13 l-383 0 7 132 c16 309 67 524 158 676 18 28 33 52 35 52 2 0 21 -36
43 -81z m3027 -24 c75 -145 133 -444 133 -687 l0 -68 -381 0 c-304 0 -380 3
-372 13 5 6 37 46 70 87 148 186 287 396 411 623 l75 138 19 -28 c10 -15 31
-50 45 -78z"/>
<path d="M2485 4589 c-16 -4 -47 -22 -68 -40 -99 -82 -112 -223 -29 -319 46
-54 101 -80 172 -80 71 0 126 26 172 80 149 173 -24 425 -247 359z"/>
<path d="M1630 3459 c-79 -13 -107 -27 -120 -59 -15 -36 -6 -66 26 -87 22 -14
37 -14 127 -4 112 13 218 5 317 -25 73 -22 112 -42 194 -103 38 -28 75 -51 82
-51 26 0 62 23 73 47 18 40 2 71 -63 124 -77 63 -178 113 -281 140 -92 23
-272 33 -355 18z"/>
<path d="M3203 3455 c-145 -26 -253 -75 -359 -161 -55 -45 -70 -77 -54 -115
11 -25 46 -49 74 -49 7 0 44 23 82 51 89 66 126 84 216 108 109 29 174 33 292
20 93 -10 108 -10 130 4 32 21 41 51 26 87 -14 33 -41 46 -130 60 -85 13 -188
11 -277 -5z"/>
<path d="M1698 3138 c-37 -3 -76 -9 -88 -13 -32 -10 -53 -49 -45 -85 12 -53
32 -59 174 -53 175 8 295 -19 410 -91 62 -39 112 -31 132 21 24 64 -51 126
-220 183 -103 35 -247 50 -363 38z"/>
<path d="M3254 3138 c-170 -11 -385 -97 -413 -166 -21 -50 14 -102 68 -102 11
0 43 14 71 31 28 17 83 43 123 57 66 24 86 26 244 27 185 1 197 4 208 55 7 33
-7 65 -35 80 -31 17 -158 25 -266 18z"/>
<path d="M2110 2786 c-103 -54 -275 -74 -442 -52 -64 8 -68 7 -93 -19 -22 -21
-26 -32 -21 -58 9 -46 36 -63 121 -76 182 -27 366 0 517 75 51 26 68 48 68 88
0 64 -70 83 -150 42z"/>
<path d="M2880 2790 c-42 -42 -22 -99 48 -134 151 -75 335 -102 517 -75 85 13
112 30 121 76 5 26 1 37 -21 58 -25 26 -29 27 -93 19 -172 -22 -332 -3 -444
52 -58 29 -101 31 -128 4z"/>
</g>
</svg>
